<svg width="20" height="21" viewBox="0 0 20 21" fill="none" xmlns="http://www.w3.org/2000/svg">
<path d="M19.5999 2.0999C19.5999 1.68401 19.3846 1.29777 19.0308 1.07912C18.677 0.860475 18.2352 0.840598 17.8632 1.02659L8.51662 5.6999H3.9999C2.01168 5.6999 0.399902 7.31168 0.399902 9.2999C0.399902 11.2881 2.01168 12.8999 3.9999 12.8999H4.335L6.46149 19.2794C6.62483 19.7694 7.0834 20.0999 7.59991 20.0999H8.79991C9.46265 20.0999 9.99991 19.5626 9.99991 18.8999V13.6416L17.8632 17.5732C18.2352 17.7592 18.677 17.7393 19.0308 17.5207C19.3846 17.302 19.5999 16.9158 19.5999 16.4999V2.0999Z" fill="#F4F0EC"/>
</svg>
